<svg width="18" height="15" viewBox="0 0 18 15" fill="none" xmlns="http://www.w3.org/2000/svg">
<path fill-rule="evenodd" clip-rule="evenodd" d="M17.2908 2.16C17.2908 2.16 10.1246 6.18977 8.6508 6.18977C7.24464 6.18977 0 2.08152 0 2.08152V1.44C0 0.64512 0.64512 0 1.44144 0H15.8602C16.6572 0 17.3023 0.64512 17.3023 1.44L17.2908 2.16ZM0.01152 4.32C0.0108 4.32 7.24464 8.16977 8.6508 8.16977C10.1923 8.16977 17.2908 4.32 17.2908 4.32L17.3023 12.96C17.3023 13.7549 16.6572 14.4 15.8602 14.4H1.44144C0.64584 14.4 0 13.7549 0 12.96L0.01152 4.32Z" fill="#FEFEFE"/>
</svg>
