<svg width="36" height="36" viewBox="0 0 36 36" fill="none" xmlns="http://www.w3.org/2000/svg">
<path fill-rule="evenodd" clip-rule="evenodd" d="M18 36C8.05887 36 0 27.9411 0 18C0 8.05887 8.05887 0 18 0C27.9411 0 36 8.05887 36 18C36 27.9411 27.9411 36 18 36ZM18.2508 16.9898C19.7246 16.9898 26.8908 12.96 26.8908 12.96L26.9023 12.24C26.9023 11.4451 26.2572 10.8 25.4602 10.8H11.0414C10.2451 10.8 9.6 11.4451 9.6 12.24V12.8815C9.6 12.8815 16.8446 16.9898 18.2508 16.9898ZM9.61152 15.12C9.6108 15.12 16.8446 18.9698 18.2508 18.9698C19.7923 18.9698 26.8908 15.12 26.8908 15.12L26.9023 23.76C26.9023 24.5549 26.2572 25.2 25.4602 25.2H11.0414C10.2458 25.2 9.6 24.5549 9.6 23.76L9.61152 15.12Z" fill="#FB7D30"/>
</svg>
