<svg width="18" height="19" viewBox="0 0 18 19" fill="none" xmlns="http://www.w3.org/2000/svg">
<path d="M3.72857 0.0367353C3.68633 0.0422456 3.64408 0.0422456 3.59082 0C3.17938 0.0955118 2.76611 0.18184 2.35651 0.290209C1.84589 0.427966 1.45098 0.736543 1.13506 1.15716C0.732809 1.69901 0.466478 2.30514 0.253413 2.93883C0.0164699 3.64047 -0.062511 4.35313 0.0513685 5.09335C0.150554 5.74724 0.370966 6.35888 0.595051 6.97604C0.964241 7.99911 1.372 9.00199 1.94324 9.93323C2.81937 11.3677 3.90307 12.6278 5.11717 13.7831C6.07596 14.6923 7.1119 15.506 8.25069 16.1801C9.5052 16.9203 10.8681 17.4089 12.2512 17.835C12.9675 18.0591 13.7132 18.1197 14.4608 17.9525C15.2837 17.7689 16.0569 17.4695 16.7494 16.9846C16.9992 16.8064 17.2472 16.586 17.4217 16.3344C17.8386 15.7282 17.958 15.0229 17.9984 14.3047C18.0131 14.0494 17.9268 13.8639 17.7119 13.7372C17.3133 13.4984 16.9184 13.2486 16.5125 13.0153C15.7557 12.58 14.9549 12.2182 14.2385 11.7057C14.1724 11.658 14.0916 11.6249 14.0163 11.5882C13.7463 11.4522 13.4891 11.4743 13.254 11.6726C13.1383 11.7682 13.0189 11.8673 12.9198 11.9794C12.5065 12.4441 12.1061 12.9125 11.691 13.3735C11.2446 13.8713 11.0205 13.9264 10.4456 13.6013C9.83582 13.2559 9.23152 12.8941 8.65111 12.4992C7.14496 11.4798 5.9529 10.1573 5.01982 8.60157C4.76818 8.18095 4.54042 7.75115 4.31083 7.32135C4.16205 7.04032 4.21899 6.77399 4.4394 6.56093C4.72226 6.28909 5.02349 6.03378 5.3137 5.76744C5.66085 5.44968 6.02086 5.13927 6.3478 4.80498C6.5774 4.57171 6.58474 4.27783 6.43046 3.98578C6.35515 3.85721 6.278 3.72496 6.19719 3.59639C6.10902 3.46047 6.00433 3.33189 5.92902 3.19046C5.63514 2.66331 5.35962 2.12697 5.06023 1.60533C4.80124 1.15349 4.52757 0.712665 4.25573 0.271841C4.1345 0.0716339 3.94715 0.0183677 3.72857 0.0367353Z" fill="#E4E4E4"/>
</svg>
