<svg width="36" height="36" viewBox="0 0 36 36" fill="none" xmlns="http://www.w3.org/2000/svg">
<path fill-rule="evenodd" clip-rule="evenodd" d="M0 18C0 27.9411 8.05887 36 18 36C27.9411 36 36 27.9411 36 18C36 8.05887 27.9411 0 18 0C8.05887 0 0 8.05887 0 18ZM29.2966 17.3111C29.2942 23.2112 24.4946 28.012 18.5933 28.0144H18.5889C16.7975 28.0138 15.0374 27.5643 13.474 26.7116L7.8 28.2L9.31846 22.6536C8.3818 21.0304 7.88894 19.1891 7.88974 17.3027C7.89209 11.4013 12.6936 6.59999 18.5932 6.59999C21.4565 6.60122 24.1439 7.71589 26.1647 9.73905C28.1854 11.7621 29.2977 14.4512 29.2966 17.3111Z" fill="#FB7D30"/>
<path fill-rule="evenodd" clip-rule="evenodd" d="M10.3699 25.6572L13.7369 24.7739L14.0618 24.9667C15.4277 25.7773 16.9934 26.2062 18.5897 26.2068H18.5933C23.4966 26.2068 27.4875 22.2159 27.4894 17.3105C27.4903 14.9334 26.5659 12.6983 24.8863 11.0168C23.2067 9.33518 20.973 8.40866 18.5968 8.40784C13.6897 8.40784 9.69885 12.3983 9.6969 17.3033C9.69621 18.9843 10.1665 20.6214 11.0571 22.0377L11.2686 22.3743L10.3699 25.6572ZM23.6193 19.6156C23.8059 19.7057 23.9318 19.7666 23.9856 19.8564C24.0524 19.9679 24.0524 20.5033 23.8297 21.1282C23.6067 21.7528 22.5383 22.323 22.0244 22.3998C21.5637 22.4687 20.9806 22.4974 20.34 22.2938C19.9515 22.1705 19.4534 22.006 18.8153 21.7304C16.3081 20.6478 14.6138 18.2178 14.2936 17.7585C14.2711 17.7264 14.2554 17.7039 14.2467 17.6922L14.2445 17.6893C14.103 17.5004 13.1547 16.2351 13.1547 14.9256C13.1547 13.6937 13.7598 13.048 14.0383 12.7508C14.0574 12.7304 14.075 12.7117 14.0907 12.6945C14.3358 12.4268 14.6256 12.3598 14.8038 12.3598C14.9821 12.3598 15.1606 12.3615 15.3164 12.3693C15.3356 12.3703 15.3556 12.3702 15.3763 12.37C15.5322 12.3691 15.7265 12.368 15.9181 12.8284C15.9919 13.0056 16.0998 13.2683 16.2136 13.5453C16.4437 14.1056 16.698 14.7246 16.7427 14.8142C16.8096 14.948 16.8542 15.1042 16.765 15.2827C16.7516 15.3095 16.7393 15.3348 16.7274 15.3589C16.6605 15.4956 16.6112 15.5962 16.4976 15.7288C16.4529 15.781 16.4067 15.8373 16.3605 15.8935C16.2685 16.0056 16.1765 16.1176 16.0964 16.1974C15.9625 16.3308 15.8231 16.4755 15.9792 16.7432C16.1352 17.011 16.6719 17.8867 17.4669 18.5959C18.3216 19.3582 19.0644 19.6804 19.4409 19.8437C19.5144 19.8756 19.574 19.9014 19.6177 19.9233C19.885 20.0572 20.041 20.0348 20.197 19.8564C20.3531 19.6779 20.8656 19.0754 21.0439 18.8077C21.2221 18.5401 21.4005 18.5846 21.6456 18.6739C21.8908 18.7632 23.2056 19.4101 23.4731 19.544C23.5253 19.5701 23.5741 19.5937 23.6193 19.6156Z" fill="#FB7D30"/>
</svg>
