<svg width="18" height="18" viewBox="0 0 18 18" fill="none" xmlns="http://www.w3.org/2000/svg">
<path fill-rule="evenodd" clip-rule="evenodd" d="M0.67298 17.2493L4.04002 16.3661L4.36487 16.5589C5.73075 17.3694 7.29646 17.7983 8.89282 17.7989H8.89642C13.7997 17.7989 17.7906 13.808 17.7925 8.90268C17.7934 6.52558 16.869 4.29049 15.1894 2.60891C13.5098 0.927341 11.2761 0.00082386 8.89992 0C3.99281 0 0.00194785 3.9905 7.56439e-07 8.89548C-0.000688485 10.5765 0.469645 12.2135 1.36017 13.6299L1.57169 13.9665L0.67298 17.2493ZM13.9224 11.2077C14.109 11.2979 14.2349 11.3587 14.2887 11.4485C14.3555 11.56 14.3555 12.0955 14.1328 12.7203C13.9098 13.345 12.8414 13.9152 12.3275 13.9919C11.8668 14.0608 11.2837 14.0896 10.6431 13.886C10.2546 13.7627 9.75652 13.5982 9.11845 13.3226C6.61124 12.24 4.91689 9.80997 4.59665 9.3507C4.57422 9.31853 4.55853 9.29603 4.54978 9.28434L4.54762 9.28146C4.40608 9.09261 3.45775 7.8273 3.45775 6.51776C3.45775 5.28586 4.06288 4.64016 4.34142 4.34294C4.36051 4.32258 4.37806 4.30385 4.39377 4.28668C4.63891 4.01893 4.92867 3.952 5.10695 3.952C5.28522 3.952 5.4637 3.95364 5.61952 3.96147C5.63875 3.96244 5.65875 3.96232 5.67942 3.9622C5.83527 3.96128 6.02957 3.96014 6.22125 4.42056C6.29499 4.59775 6.40289 4.86044 6.51669 5.13749C6.74682 5.69775 7.00108 6.31676 7.04582 6.40634C7.11269 6.54021 7.15725 6.69633 7.06811 6.8749C7.05473 6.90167 7.04235 6.92694 7.03053 6.95108C6.96357 7.08777 6.91432 7.18832 6.80068 7.32101C6.756 7.37318 6.70981 7.42943 6.66363 7.48567C6.57162 7.59772 6.47962 7.70976 6.39951 7.78957C6.26562 7.92293 6.12625 8.06762 6.28226 8.33537C6.43826 8.60312 6.975 9.47887 7.77005 10.188C8.62469 10.9504 9.36749 11.2725 9.74399 11.4359C9.81752 11.4678 9.87708 11.4936 9.92077 11.5155C10.1881 11.6494 10.3441 11.627 10.5001 11.4485C10.6562 11.27 11.1687 10.6676 11.347 10.3999C11.5252 10.1322 11.7036 10.1768 11.9487 10.266C12.1939 10.3554 13.5087 11.0023 13.7762 11.1361C13.8284 11.1623 13.8772 11.1859 13.9224 11.2077Z" fill="#FEFEFE"/>
</svg>
